# xmcd
#
# Track frame offsets: 
#        150
#        10792
#        21573
#        37888
#        55847
#        72699
#        87434
#        103581
#        120156
#        139091
#        157129
#        176489
#        192030
#        208636
#        238607
#
# Disc length: 3226 seconds
#
# Revision: 1
# Processed by: cddbd v1.5.2PL0 Copyright (c) Steve Scherf et al.
# Submitted via: ExactAudioCopy v0.99pb5
#
DISCID=ca0c980f
DTITLE=Ronnie Milsap - The Very Best of Ronnie Milsap
DYEAR=2008
DGENRE=Country
TTITLE0=Pure Love
TTITLE1=Daydreams About Night Things
TTITLE2=It Was Almost Like a Song
TTITLE3=What a Difference You've Made in My Life
TTITLE4=Smoky Mountain Rain
TTITLE5=(There's) No Gettin' Over Me
TTITLE6=I Wouldn't Have Missed It for the World
TTITLE7=Any Day Now
TTITLE8=Stranger in My House
TTITLE9=She Loves My Car
TTITLE10=Lost in the Fifties Tonight (In the Still of the Night)
TTITLE11=Houston Solution
TTITLE12=Turn That Radio On
TTITLE13=All is Fair in Love and War
TTITLE14=Data Track
EXTD=
EXTT0=
EXTT1=
EXTT2=
EXTT3=
EXTT4=
EXTT5=
EXTT6=
EXTT7=
EXTT8=
EXTT9=
EXTT10=
EXTT11=
EXTT12=
EXTT13=
EXTT14=
PLAYORDER=
